<svg xmlns="http://www.w3.org/2000/svg" enable-background="new 0 0 5320 3547" viewBox="0 0 5320 3547" id="businessman-presenting-analysis-report">
  <rect width="5320" height="3547" fill="#FFF" stroke="#231F20" stroke-miterlimit="10" display="none"></rect>
  <path fill="#E8E8F7" d="M1388.08,2184.05c90.73,96.64,215.09,155.25,347.44,167.32c387.83,35.37,1514.15,286.03,2024.19-14.53
			c517.1-304.72,471.86-620.19,209.22-1089.76s-129.09-664.49-369.47-823.97c-240.38-159.48-489.66-217.07-992.68-44.3
			c-503.02,172.77-703.34-217.07-1099.52,141.76s-413.99,544.88-249.28,925.85C1394.73,1762.77,1166.25,1947.77,1388.08,2184.05z"></path>
  <ellipse cx="2635.78" cy="3049.47" fill="#E8E8F7" rx="1228.16" ry="224.03"></ellipse>
  <rect width="1410.86" height="1193.18" x="1580.87" y="716.68" fill="#302849"></rect>
  <rect width="1367.95" height="1241.88" x="1602.33" y="648.5" fill="#E8E8F7"></rect>
  <rect width="1367.95" height="150.97" x="1602.33" y="658.24" fill="#CCC7EF"></rect>
  <rect width="1457.81" height="150.97" x="1557.4" y="638.76" fill="#675687"></rect>
  <rect width="147.35" height="649.93" x="1769.07" y="1145.21" fill="#BBBBEA"></rect>
  <rect width="147.35" height="518.69" x="1974.07" y="1276.44" fill="#BBBBEA"></rect>
  <rect width="147.35" height="387.46" x="2179.08" y="1407.68" fill="#BBBBEA"></rect>
  <rect width="723.91" height="25" x="1692.2" y="1782.64" fill="#F08302"></rect>
  <rect width="609.09" height="77.92" x="2276.32" y="877.4" fill="#CCC7EF"></rect>
  <rect width="424.36" height="77.92" x="2461.04" y="999.15" fill="#CCC7EF"></rect>
  <rect width="84.87" height="77.92" x="2356.2" y="999.15" fill="#CCC7EF"></rect>
  <rect width="359.46" height="311.69" x="2505.97" y="1125.77" fill="#D3D0F4"></rect>
  <rect width="359.46" height="311.69" x="2505.97" y="1491.03" fill="#D3D0F4"></rect>
  <g>
    <path fill="#675687" d="M2833.49,1145.28c-24.3,17.17-47.46,35.97-69.19,56.26c-21.74,20.28-42.17,41.91-61.15,64.71
						c-9.44,11.44-18.63,23.1-27.31,35.14c-4.32,6.04-8.59,12.11-12.74,18.29c-0.07,0.1-0.13,0.2-0.2,0.3
						c-3.84-6.77-7.98-13.35-12.42-19.7c-8.68-12.64-18.41-24.44-28.78-35.54c-10.36-11.12-21.47-21.47-33.14-31.1
						c-11.72-9.56-23.9-18.57-36.94-26.21c10.5,10.69,20.43,21.71,29.95,32.97c9.5,11.27,18.61,22.75,27.07,34.57
						c16.93,23.6,31.6,48.48,41.62,74.59l8.61,22.42l13.65-20.82c3.67-5.59,7.89-11.59,12.06-17.31c4.17-5.8,8.44-11.55,12.78-17.25
						c8.74-11.37,17.63-22.67,26.85-33.71c18.33-22.17,37.51-43.7,57.49-64.55c19.93-20.9,40.67-41.12,62.12-60.78
						c21.48-19.64,43.76-38.55,66.53-57.44C2883.47,1112.83,2857.87,1128.22,2833.49,1145.28z"></path>
  </g>
  <g>
    <path fill="#675687" d="M2833.49,1505.67c-24.3,17.17-47.46,35.98-69.19,56.26c-21.74,20.28-42.17,41.91-61.15,64.71
						c-9.44,11.44-18.63,23.1-27.31,35.14c-4.32,6.04-8.59,12.11-12.74,18.29c-0.07,0.1-0.13,0.2-0.2,0.3
						c-3.84-6.77-7.98-13.35-12.42-19.69c-8.68-12.64-18.41-24.44-28.78-35.54c-10.36-11.12-21.47-21.47-33.14-31.1
						c-11.72-9.56-23.9-18.57-36.94-26.21c10.5,10.69,20.43,21.71,29.95,32.97c9.5,11.27,18.61,22.75,27.07,34.57
						c16.93,23.6,31.6,48.48,41.62,74.59l8.61,22.42l13.65-20.82c3.67-5.59,7.89-11.59,12.06-17.31c4.17-5.8,8.44-11.55,12.78-17.25
						c8.74-11.37,17.63-22.67,26.85-33.71c18.33-22.17,37.51-43.7,57.49-64.55c19.93-20.9,40.67-41.12,62.12-60.78
						c21.48-19.63,43.76-38.55,66.53-57.44C2883.47,1473.22,2857.87,1488.61,2833.49,1505.67z"></path>
  </g>
  <path fill="#302849" d="m1765.68 1923.15-21.99-2.03c-5.48-.51-10.33 3.45-10.8 8.8l-97.15 1116.33c-.46 5.28 3.53 9.93 8.93 10.43 5.41.5 10.22-3.34 10.78-8.61l119.14-1114.3C1775.17 1928.43 1771.16 1923.66 1765.68 1923.15zM1854.37 1923.15l21.99-2.03c5.48-.51 10.33 3.45 10.8 8.8l97.15 1116.33c.46 5.28-3.53 9.93-8.93 10.43-5.41.5-10.22-3.34-10.78-8.61l-119.14-1114.3C1844.88 1928.43 1848.88 1923.66 1854.37 1923.15zM2694.29 1923.15l-21.99-2.03c-5.48-.51-10.33 3.45-10.8 8.8l-97.15 1116.33c-.46 5.28 3.53 9.93 8.93 10.43 5.41.5 10.22-3.34 10.78-8.61l119.14-1114.3C2703.78 1928.43 2699.77 1923.66 2694.29 1923.15zM2782.97 1923.15l21.99-2.03c5.48-.51 10.33 3.45 10.8 8.8l97.15 1116.33c.46 5.28-3.53 9.93-8.93 10.43-5.41.5-10.22-3.34-10.78-8.61l-119.14-1114.3C2773.49 1928.43 2777.49 1923.66 2782.97 1923.15z"></path>
  <path fill="#675687" d="M3026.18,1968.31H1551.42c-4.97,0-9-4.03-9-9v-69.66c0-4.97,4.03-9,9-9h1474.76c4.97,0,9,4.03,9,9v69.66
				C3035.18,1964.28,3031.15,1968.31,3026.18,1968.31z"></path>
  <path fill="#302849" d="M1687.2,711.81c0,16.14-13.41,29.22-29.96,29.22c-16.54,0-29.95-13.08-29.95-29.22
				c0-16.14,13.41-29.22,29.95-29.22C1673.79,682.59,1687.2,695.67,1687.2,711.81z"></path>
  <path fill="#BBBBEA" d="M1787.05,711.81c0,16.14-13.41,29.22-29.95,29.22s-29.95-13.08-29.95-29.22
				c0-16.14,13.41-29.22,29.95-29.22S1787.05,695.67,1787.05,711.81z"></path>
  <path fill="#E8E8F7" d="M1886.9,711.81c0,16.14-13.41,29.22-29.95,29.22s-29.96-13.08-29.96-29.22
				c0-16.14,13.41-29.22,29.96-29.22S1886.9,695.67,1886.9,711.81z"></path>
  <g>
    <path fill="#F9C095" d="M2955.5,1353.98c0,0-52.07-34.98-54.97-67.08c-2.9-32.09,32.88-109.43,75.07-40.75
					c0,0,2.84,17.52,23.51,3.11c20.67-14.41,17.97,84.13,17.97,84.13l-49.43,34.06L2955.5,1353.98z"></path>
    <rect width="120.45" height="75.73" x="3586.52" y="2903.64" fill="#F9C095" transform="rotate(-89.02 3646.574 2941.365)"></rect>
    <path d="M3683.36,2967.94c1.26,0.13,2.24,5.81,2.55,6.95c3.3,12.21,20.18,79.47-7.05,83.78c-29.96,4.75-39.42-6.39-72.22,12.17
				c-26.98,15.26-92.76,5.75-115.24,1.89c-4.74-0.81-8.3-4.51-8.56-8.97c-0.55-9.49,0.5-25.28,12.36-31.5
				c17.01-8.92,95.43-38.75,109.74-65.25c0.71-1.32,2.2-2.1,3.79-2.04L3683.36,2967.94z"></path>
    <polygon fill="#F9C095" points="3076.97 2987.31 3151.61 2999.78 3172.46 2881.07 3097.82 2868.59"></polygon>
    <path d="M3156.81,2965.74c1.22,0.31,1.31,6.08,1.44,7.25c1.36,12.56,7.6,81.53-19.99,81.77c-30.35,0.26-37.97-12.14-73.27,1.35
				c-29.04,11.1-92.58-8.03-114.2-15.17c-4.56-1.5-7.51-5.68-7.07-10.13c0.93-9.47,4.42-24.91,17.11-29.31
				c18.2-6.3,100.35-24.19,118.61-48.27c0.91-1.2,2.5-1.75,4.06-1.45L3156.81,2965.74z"></path>
    <path fill="#F08302" d="M3701.99,2236.95c-69.58,287.22,29.82,231.37-9.94,686.14h-89.46c0,0-74.55-378.97-74.55-506.63
				c0-127.65-59.64-271.27-59.64-271.27s-1.49,2.87-4.17,8.14c-20.48,39.65-95.33,213.74-148.01,263.13
				c-59.64,55.85,26.6,207.44-142.38,494.66h-92.95c0,0,29.68-422.86,109.2-622.32c79.52-199.46,79.52-303.18,124.25-410.89h387.65
				C3701.99,1877.92,3767.39,1966.88,3701.99,2236.95z"></path>
    <path fill="#E27905" d="M3701.99,2236.95c-69.58,287.22,29.82,231.37-9.94,686.14h-89.46c0,0-74.55-378.97-74.55-506.63
				c0-127.65-59.64-271.27-59.64-271.27s-1.49,2.87-4.17,8.14c-24.06-145.77-43.04-253.79-46.82-275.41h284.58
				C3701.99,1877.92,3767.39,1966.88,3701.99,2236.95z"></path>
    <path fill="#675687" d="M3733.6,2028.64v-566.07l73.11,280.81c0,0-123.37,129.26-155.35,254.06l45.69,22.29
				c0,0,274.15-187.2,255.88-338.75c-18.28-151.55-83.85-398.14-152.39-442.71c-68.54-44.57-150.78-71.32-150.78-71.32l-158.32-3.01
				c0,0-182.77,26.74-233.03,156c-50.26,129.26-73.11,240.69-73.11,240.69s-67.6-133.72-163.56-240.69l-64.91,44.57
				c0,0,182.77,432.35,255.88,374.41c73.11-57.94,73.11-95.43,73.11-95.43l-18.27,372.05
				C3267.55,2015.53,3740.46,2021.95,3733.6,2028.64z"></path>
    <path fill="#544577" d="M3732.97,1833.92l-1.44,162.88C3731.54,1996.81,3744.97,1914.43,3732.97,1833.92z"></path>
    <path fill="#F9C095" d="M3639.48,1168.31c-107.27,74.35-155.37-1.4-155.37-1.4c7.11-0.88,12.08-3.88,15.38-9.22
							c0.62-0.96,1.16-2.01,1.67-3.14c5.98-13.58,10.39-28.75,10.92-30.59c0.03-0.14,0.06-0.19,0.06-0.19l98.12-25.22
							c0,0,0.99,22.97,0.56,29.27v0.08c-0.06,4.93-3.82,10.72-0.51,16.47C3622.55,1165.55,3639.48,1168.31,3639.48,1168.31z"></path>
    <path fill="#F4B082" d="M3610.83,1127.8v0.08c0,0-69.56,43.62-111.34,29.79c0.62-0.96,1.16-2.01,1.67-3.14
							c5.98-13.58,10.39-28.75,10.92-30.59c0.03-0.14,0.06-0.19,0.06-0.19l98.12-25.22
							C3610.27,1098.53,3611.14,1109.3,3610.83,1127.8z"></path>
    <path fill="#F9C095" d="M3460.62,987.78c0.39,3.64,0.86,7.31,1.41,10.99c10.15,67.61,2.11,150.28,115.16,135.83
							c40.42-5.17,72.38-43.2,88.57-87.44c10.08-27.55,14.06-57.51,10.16-83.45c-10.15-67.61-72.82-114.14-139.99-103.94
							C3472.45,869.43,3453.88,924.64,3460.62,987.78z"></path>
    <path fill="#F9C095" d="M3636.55,1023.48c0,0,17.1-22.43,41.09-17.28c23.99,5.15,31.73,36.18-28.18,71.58l-12.84,8.63
							L3636.55,1023.48z"></path>
    <path d="M3650.56,1012.08c0,0-38.13-23.55-39.4-77.48c0,0-34.95,22.32-70.53,3.1c0,0-66.62,60.57-100.94,2.3
					c-34.31-58.27,50.74-84.75,50.74-84.75s36.86-55.17,85.78-15.5c0,0,63.54-28.51,76.89,37.19c0,0,88.33,35.95,20.97,132.65
					L3650.56,1012.08z"></path>
  </g>
  <g>
    <path fill="#BBBBEA" d="M2295.61,2787.97c0,0-23.52-131.61-5.33-197.55c18.19-65.94-44.35-160.19,13.01-232.69
						c57.36-72.5,136.09-5.95,126.76,88.63c-9.33,94.58-76.61,142.7-56.74,196.78c19.87,54.08-39.81,96.85-38.49,143.58
						L2295.61,2787.97z"></path>
    <path fill="#FFF" d="M2354.69,2403.16c1.58,7.87,1.81,15.92,2.13,23.92c0.05,4,0.17,8.01,0.17,12.02l-0.11,12.02
						c-0.05,4.01-0.28,8.01-0.41,12.01c-0.17,4-0.26,8.01-0.53,12.01l-0.7,12c-0.22,4-0.46,8-0.79,11.99
						c-2.23,31.97-5.92,63.81-9.66,95.63l-3.13,23.83c-0.53,3.97-1.02,7.94-1.59,11.91l-1.7,11.89l-3.41,23.79
						c-0.58,3.96-1.1,7.93-1.75,11.89l-1.9,11.87l-3.81,23.73l-1.9,11.86l-2.01,11.85c-2.81,15.78-5.51,31.57-8.41,47.32
						c4.42-31.73,9.26-63.39,13.65-95.11c4.48-31.71,8.87-63.43,12.73-95.2c1.09-7.93,1.96-15.88,2.92-23.83l1.41-11.92
						c0.47-3.97,0.95-7.95,1.35-11.93l2.49-23.87l2.23-23.89c0.4-3.98,0.71-7.97,1.01-11.96l0.92-11.96
						c0.34-3.99,0.51-7.98,0.75-11.97c0.21-3.99,0.49-7.98,0.64-11.98l0.48-11.99c0.12-4,0.13-7.99,0.19-11.99c0.04-2-0.05-4-0.06-6
						c-0.05-2-0.03-4-0.16-5.99c-0.12-1.99-0.13-4-0.33-5.99l-0.27-2.99C2354.98,2405.14,2354.9,2404.14,2354.69,2403.16z"></path>
    <path fill="#FFF" d="M2316.22 2442.11c4.53 5.16 8.78 10.54 12.84 16.06 4.06 5.53 7.88 11.23 11.37 17.13 3.48 5.91 6.62 12.05 9.06 18.51 1.19 3.24 2.2 6.57 2.87 9.99.67 3.42 1.01 6.96.68 10.54l-3.25-.35c.42-3.18.25-6.47-.25-9.73-.51-3.26-1.34-6.5-2.37-9.69-2.12-6.37-4.96-12.53-8.17-18.52-3.22-5.98-6.79-11.79-10.62-17.45C2324.57 2452.97 2320.54 2447.43 2316.22 2442.11zM2347.5 2543.25c1.19-2.45 2.48-4.64 3.87-6.86 1.37-2.21 2.83-4.34 4.33-6.46 3.01-4.21 6.25-8.24 9.62-12.16 1.71-1.94 3.41-3.88 5.2-5.74 1.74-1.9 3.58-3.72 5.4-5.55 1.81-1.84 3.73-3.57 5.59-5.36l5.77-5.17-5.48 5.45c-1.76 1.88-3.58 3.7-5.28 5.62-1.71 1.91-3.44 3.81-5.07 5.79-1.68 1.94-3.26 3.95-4.85 5.96-3.13 4.05-6.11 8.19-8.85 12.48-1.36 2.15-2.68 4.31-3.9 6.53-1.22 2.19-2.4 4.49-3.33 6.69L2347.5 2543.25zM2343.58 2577.07c-.7-5.84-1.86-11.77-3.27-17.57-1.42-5.82-3.17-11.57-5.2-17.22-.98-2.84-2.14-5.62-3.28-8.4-.58-1.39-1.24-2.74-1.86-4.12l-.94-2.06c-.32-.68-.68-1.34-1.03-2.02l-2.08-4.03-2.28-3.92-1.14-1.96-1.25-1.89-2.51-3.79 2.68 3.68 1.34 1.84 1.23 1.91 2.47 3.83 2.27 3.95c.37.66.77 1.31 1.12 1.98l1.04 2.03c.68 1.36 1.41 2.69 2.06 4.07 1.27 2.75 2.57 5.5 3.69 8.33 2.31 5.62 4.34 11.35 6.04 17.18 1.7 5.85 3.14 11.71 4.15 17.8L2343.58 2577.07zM2301.61 2570.71c4.32 5.07 8.39 10.35 12.3 15.74 3.91 5.39 7.6 10.94 11.02 16.66 3.41 5.73 6.52 11.64 9.06 17.85 1.24 3.11 2.33 6.3 3.14 9.59.81 3.28 1.35 6.68 1.3 10.16l-3.26-.11c.18-3.12-.19-6.31-.83-9.46-.64-3.15-1.57-6.27-2.65-9.35-2.22-6.14-5.05-12.11-8.19-17.91-3.15-5.8-6.6-11.46-10.27-16.99C2309.57 2581.37 2305.72 2575.95 2301.61 2570.71zM2378.88 2560.79c-4.04 2.54-7.84 5.43-11.46 8.49-3.61 3.07-7 6.38-10.13 9.88-3.12 3.52-5.87 7.32-8.26 11.28-2.36 4-4.11 8.26-5.39 12.61l-3.14-.89c1.63-4.59 3.75-8.96 6.44-12.97 2.72-3.97 5.76-7.71 9.15-11.11 3.39-3.39 7.01-6.53 10.82-9.43C2370.72 2565.79 2374.69 2563.1 2378.88 2560.79zM2300.69 2625.66c4.71 5.21 8.96 10.83 12.86 16.66 3.87 5.85 7.39 11.95 10.27 18.36 2.9 6.4 5.18 13.11 6.44 20.08.59 3.49.96 7.03.97 10.59-.03 3.56-.4 7.14-1.14 10.66l-3.18-.73c.81-3.26 1.3-6.61 1.46-9.99.13-3.38-.09-6.79-.53-10.17-.95-6.77-2.92-13.42-5.52-19.83-2.59-6.42-5.84-12.6-9.46-18.56C2309.21 2636.8 2305.19 2631.05 2300.69 2625.66zM2333.21 2660.26c1.67-3.45 3.63-6.51 5.85-9.49 2.21-2.96 4.69-5.71 7.38-8.23 1.31-1.29 2.77-2.44 4.19-3.61.73-.56 1.5-1.08 2.24-1.62l1.13-.8 1.18-.72c3.08-2.03 6.49-3.49 9.9-4.83-3.3 1.58-6.56 3.27-9.43 5.48l-1.1.79-1.04.86c-.69.58-1.4 1.15-2.07 1.74-1.3 1.25-2.63 2.46-3.81 3.81-2.42 2.64-4.61 5.47-6.52 8.47-1.89 2.97-3.6 6.18-4.84 9.32L2333.21 2660.26z"></path>
    <g>
      <path fill="#CCC7EF" d="M2268.13,2785.75c0,0,33.51-104.68,72.17-146.15c38.67-41.47,29.31-133.18,99.09-165.08
						c69.78-31.91,101.63,45.52,58.39,111.14c-43.23,65.62-110.87,76.09-117.19,122.85c-6.32,46.76-66.35,56.11-83.38,90.7
						L2268.13,2785.75z"></path>
      <path fill="#FFF" d="M2459.42,2526.52c-1.87,6.33-4.81,12.29-7.65,18.24c-1.5,2.94-2.96,5.91-4.5,8.84l-4.71,8.73
						c-1.58,2.91-3.28,5.74-4.92,8.62c-1.66,2.86-3.27,5.75-5.01,8.57l-5.13,8.5c-1.7,2.84-3.41,5.67-5.19,8.46
						c-13.94,22.52-28.89,44.41-43.87,66.27l-11.46,16.24c-1.92,2.7-3.8,5.43-5.75,8.11l-5.82,8.06l-11.65,16.11
						c-1.95,2.68-3.86,5.39-5.85,8.04l-5.96,7.96l-11.92,15.93l-5.96,7.96l-6.03,7.91c-8.13,10.49-16.18,21.02-24.36,31.46
						c15.45-21.54,31.17-42.88,46.59-64.42c15.48-21.5,30.89-43.05,45.95-64.83c3.85-5.39,7.54-10.88,11.31-16.32l5.62-8.18
						c1.88-2.73,3.76-5.45,5.57-8.21l11.01-16.51l10.83-16.62c1.83-2.76,3.59-5.56,5.34-8.36l5.28-8.4
						c1.79-2.78,3.44-5.64,5.16-8.46c1.69-2.84,3.43-5.65,5.08-8.51l4.96-8.57c1.63-2.87,3.17-5.79,4.76-8.68
						c0.8-1.45,1.5-2.93,2.26-4.4c0.74-1.48,1.52-2.93,2.19-4.43c0.68-1.5,1.44-2.97,2.06-4.49l0.96-2.28
						C2458.87,2528.07,2459.2,2527.31,2459.42,2526.52z"></path>
      <path fill="#FFF" d="M2416.35 2540.86c1.32 5.42 2.35 10.91 3.19 16.43.83 5.52 1.43 11.08 1.7 16.67.26 5.59.19 11.22-.51 16.83-.38 2.8-.93 5.6-1.75 8.35-.83 2.74-1.94 5.45-3.56 7.95l-2.24-1.45c1.53-2.16 2.67-4.63 3.56-7.19.89-2.57 1.52-5.23 2-7.94.91-5.42 1.2-10.97 1.16-16.51-.05-5.54-.42-11.1-1.03-16.63C2418.25 2551.84 2417.44 2546.32 2416.35 2540.86zM2400.23 2626.14c1.81-1.36 3.6-2.48 5.46-3.59 1.85-1.11 3.74-2.13 5.65-3.13 3.82-1.97 7.74-3.73 11.7-5.35 1.99-.79 3.98-1.58 6.01-2.29 2.01-.75 4.05-1.4 6.08-2.07 2.03-.68 4.1-1.24 6.14-1.86l6.2-1.66-6.1 1.97c-2.01.73-4.04 1.39-6.02 2.17-1.99.77-3.98 1.52-5.93 2.37-1.97.8-3.9 1.69-5.83 2.57-3.84 1.81-7.62 3.74-11.26 5.87-1.82 1.07-3.62 2.17-5.36 3.34-1.73 1.16-3.48 2.4-5 3.67L2400.23 2626.14zM2384.35 2649.39c1.74-4.52 3.18-9.27 4.38-14.02 1.2-4.77 2.14-9.61 2.83-14.48.38-2.43.6-4.88.84-7.34.12-1.23.15-2.46.23-3.69l.1-1.85c.03-.62.02-1.23.03-1.85l.04-3.7-.16-3.7-.08-1.85-.19-1.84-.37-3.69.54 3.67.27 1.84.16 1.85.32 3.7.13 3.71c.02.62.05 1.24.06 1.86l-.02 1.86c-.02 1.24-.01 2.48-.07 3.72-.13 2.48-.24 4.96-.51 7.43-.48 4.94-1.2 9.87-2.2 14.75-1.01 4.89-2.22 9.7-3.83 14.51L2384.35 2649.39zM2356.16 2629.37c1.2 5.29 2.14 10.63 2.92 16 .77 5.37 1.34 10.77 1.63 16.2.28 5.43.28 10.89-.26 16.35-.29 2.73-.73 5.45-1.4 8.15-.68 2.69-1.59 5.37-2.97 7.89l-2.34-1.28c1.33-2.21 2.29-4.67 3.04-7.21.74-2.54 1.27-5.15 1.67-7.79.75-5.3.98-10.69.92-16.07-.07-5.39-.41-10.78-.96-16.16C2357.86 2640.07 2357.14 2634.7 2356.16 2629.37zM2416.38 2650.44c-3.93.37-7.81 1.09-11.64 2-3.82.92-7.57 2.09-11.2 3.5-3.63 1.42-7.1 3.19-10.38 5.21-3.26 2.05-6.18 4.52-8.79 7.23l-1.95-1.8c2.96-2.75 6.19-5.17 9.69-7.11 3.52-1.9 7.18-3.51 10.95-4.76 3.78-1.23 7.63-2.2 11.53-2.92C2408.5 2651.1 2412.44 2650.6 2416.38 2650.44zM2334.33 2669.15c1.43 5.53 2.37 11.19 2.98 16.87.57 5.69.79 11.43.43 17.17-.35 5.73-1.27 11.47-3.03 17.02-.91 2.76-2 5.48-3.37 8.09-1.4 2.59-3.04 5.06-4.94 7.37l-2.04-1.7c1.85-2.08 3.49-4.35 4.91-6.75 1.39-2.42 2.55-4.99 3.53-7.62 1.91-5.29 3.04-10.87 3.6-16.5.58-5.64.59-11.33.24-17.01C2336.26 2680.4 2335.55 2674.73 2334.33 2669.15zM2344.74 2706.31c2.55-1.91 5.16-3.42 7.92-4.79 2.75-1.35 5.62-2.45 8.56-3.31 1.46-.46 2.96-.76 4.45-1.1.75-.14 1.51-.24 2.26-.36l1.13-.17 1.14-.09c3.03-.35 6.08-.17 9.08.1-3.02-.06-6.04-.02-9 .55l-1.11.17-1.1.25c-.73.17-1.46.32-2.18.51-1.43.44-2.86.83-4.25 1.38-2.78 1.04-5.47 2.3-8.02 3.79-2.53 1.48-5.01 3.19-7.12 5.03L2344.74 2706.31z"></path>
    </g>
    <g>
      <path fill="#BBBBEA" d="M2258.43,2731.5c0,0,23.52-131.61,5.33-197.55c-18.19-65.95,44.35-160.19-13.01-232.69
						c-57.36-72.5-136.09-5.95-126.76,88.63c9.33,94.58,76.61,142.7,56.74,196.78c-19.87,54.08,39.81,96.85,38.49,143.59
						L2258.43,2731.5z"></path>
      <path fill="#FFF" d="M2199.35,2346.69c-1.58,7.87-1.8,15.92-2.13,23.92c-0.05,4-0.17,8.01-0.17,12.02l0.11,12.02
						c0.05,4.01,0.28,8.01,0.41,12.01c0.17,4,0.26,8.01,0.53,12.01l0.7,12c0.22,4,0.46,8,0.79,11.99
						c2.23,31.97,5.92,63.81,9.66,95.63l3.13,23.83c0.53,3.97,1.02,7.95,1.59,11.91l1.7,11.89l3.41,23.79
						c0.58,3.96,1.1,7.93,1.75,11.89l1.9,11.86l3.81,23.73l1.9,11.86l2.01,11.85c2.81,15.78,5.51,31.57,8.41,47.32
						c-4.42-31.73-9.26-63.39-13.65-95.11c-4.48-31.71-8.87-63.43-12.73-95.2c-1.09-7.93-1.96-15.88-2.92-23.83l-1.41-11.92
						c-0.47-3.97-0.95-7.95-1.35-11.93l-2.49-23.87l-2.23-23.89c-0.4-3.98-0.71-7.97-1.01-11.96l-0.92-11.96
						c-0.34-3.99-0.51-7.98-0.75-11.97c-0.21-3.99-0.49-7.98-0.64-11.98l-0.48-11.99c-0.12-4-0.13-7.99-0.19-11.99
						c-0.04-2,0.05-4,0.06-6c0.05-2,0.03-4,0.16-5.99c0.12-1.99,0.13-4,0.33-5.99l0.27-2.99
						C2199.05,2348.67,2199.14,2347.67,2199.35,2346.69z"></path>
      <path fill="#FFF" d="M2237.81 2385.64c-4.53 5.16-8.78 10.54-12.84 16.06-4.06 5.53-7.88 11.23-11.37 17.13-3.48 5.91-6.62 12.05-9.06 18.51-1.19 3.24-2.2 6.57-2.87 9.99-.67 3.42-1.01 6.96-.68 10.54l3.25-.35c-.42-3.18-.25-6.47.25-9.73.51-3.26 1.34-6.5 2.37-9.69 2.12-6.37 4.96-12.54 8.17-18.52 3.22-5.98 6.79-11.79 10.61-17.45C2229.47 2396.5 2233.5 2390.97 2237.81 2385.64zM2206.54 2486.78c-1.18-2.45-2.48-4.64-3.86-6.86-1.37-2.21-2.83-4.34-4.33-6.46-3.01-4.21-6.25-8.24-9.62-12.16-1.71-1.94-3.41-3.88-5.2-5.74-1.74-1.9-3.58-3.72-5.4-5.55-1.81-1.84-3.73-3.57-5.59-5.36l-5.77-5.17 5.48 5.45c1.76 1.88 3.58 3.7 5.28 5.62 1.71 1.91 3.44 3.81 5.07 5.79 1.68 1.94 3.26 3.95 4.85 5.96 3.13 4.05 6.11 8.19 8.85 12.48 1.36 2.15 2.68 4.31 3.9 6.53 1.22 2.19 2.4 4.49 3.33 6.69L2206.54 2486.78zM2210.46 2520.6c.7-5.84 1.86-11.77 3.27-17.57 1.42-5.82 3.17-11.57 5.2-17.22.98-2.84 2.14-5.62 3.28-8.4.58-1.39 1.24-2.74 1.86-4.12l.94-2.06c.32-.68.69-1.34 1.03-2.02l2.08-4.03 2.28-3.92 1.14-1.96 1.25-1.9 2.51-3.79-2.68 3.68-1.34 1.84-1.23 1.91-2.47 3.83-2.27 3.95c-.37.66-.77 1.31-1.12 1.98l-1.04 2.03c-.68 1.36-1.41 2.69-2.06 4.07-1.27 2.75-2.57 5.51-3.69 8.33-2.31 5.62-4.34 11.35-6.04 17.18-1.7 5.85-3.14 11.71-4.15 17.8L2210.46 2520.6zM2252.42 2514.24c-4.32 5.07-8.39 10.35-12.3 15.74-3.91 5.39-7.61 10.94-11.03 16.66-3.41 5.73-6.52 11.64-9.06 17.85-1.24 3.11-2.33 6.3-3.14 9.59-.81 3.28-1.35 6.68-1.3 10.16l3.26-.11c-.18-3.12.19-6.31.83-9.46.64-3.15 1.57-6.27 2.65-9.35 2.22-6.14 5.05-12.11 8.19-17.91 3.15-5.8 6.6-11.46 10.27-16.99C2244.47 2524.9 2248.32 2519.48 2252.42 2514.24zM2175.16 2504.32c4.04 2.54 7.84 5.43 11.46 8.49 3.61 3.07 7 6.38 10.13 9.88 3.12 3.52 5.87 7.32 8.26 11.28 2.36 4 4.11 8.26 5.39 12.61l3.14-.89c-1.63-4.59-3.75-8.96-6.44-12.97-2.72-3.97-5.76-7.71-9.15-11.11-3.39-3.39-7.01-6.54-10.82-9.43C2183.32 2509.32 2179.34 2506.64 2175.16 2504.32zM2253.35 2569.2c-4.71 5.21-8.96 10.83-12.86 16.66-3.87 5.85-7.39 11.95-10.27 18.36-2.9 6.4-5.18 13.11-6.44 20.08-.59 3.49-.96 7.03-.97 10.59.03 3.56.4 7.14 1.14 10.66l3.18-.73c-.81-3.26-1.3-6.61-1.46-9.99-.13-3.38.09-6.79.53-10.17.95-6.77 2.92-13.42 5.52-19.83 2.59-6.42 5.84-12.6 9.46-18.56C2244.83 2580.33 2248.84 2574.58 2253.35 2569.2zM2220.83 2603.79c-1.67-3.45-3.63-6.51-5.85-9.49-2.21-2.96-4.69-5.71-7.38-8.23-1.31-1.29-2.77-2.44-4.19-3.61-.73-.56-1.5-1.08-2.24-1.62l-1.13-.8-1.18-.72c-3.08-2.03-6.49-3.49-9.9-4.83 3.3 1.58 6.56 3.27 9.43 5.48l1.1.79 1.05.86c.69.58 1.39 1.15 2.07 1.74 1.3 1.25 2.63 2.46 3.81 3.81 2.42 2.64 4.61 5.47 6.52 8.47 1.89 2.97 3.6 6.18 4.84 9.32L2220.83 2603.79z"></path>
    </g>
    <g>
      <path fill="#CCC7EF" d="M2285.91,2729.29c0,0-33.51-104.68-72.18-146.15c-38.67-41.47-29.31-133.18-99.09-165.08
						c-69.78-31.91-101.63,45.52-58.39,111.14c43.23,65.62,110.87,76.09,117.19,122.85c6.32,46.75,66.35,56.11,83.38,90.7
						L2285.91,2729.29z"></path>
      <path fill="#FFF" d="M2094.62,2470.05c1.87,6.33,4.81,12.29,7.65,18.24c1.5,2.94,2.96,5.91,4.5,8.84l4.71,8.73
						c1.58,2.91,3.28,5.74,4.92,8.62c1.66,2.86,3.27,5.75,5.01,8.57l5.13,8.5c1.7,2.84,3.41,5.67,5.19,8.46
						c13.94,22.52,28.89,44.41,43.87,66.27l11.46,16.25c1.92,2.7,3.8,5.42,5.75,8.11l5.82,8.06l11.65,16.11
						c1.95,2.68,3.86,5.39,5.85,8.04l5.96,7.96l11.92,15.92l5.96,7.96l6.03,7.91c8.12,10.49,16.17,21.02,24.36,31.46
						c-15.45-21.54-31.17-42.88-46.59-64.43c-15.48-21.5-30.89-43.05-45.95-64.83c-3.85-5.39-7.54-10.88-11.31-16.32l-5.62-8.18
						c-1.88-2.73-3.76-5.45-5.57-8.21l-11.01-16.51l-10.83-16.62c-1.83-2.76-3.59-5.56-5.34-8.36l-5.28-8.4
						c-1.79-2.78-3.44-5.64-5.16-8.46c-1.69-2.84-3.43-5.65-5.08-8.51l-4.96-8.57c-1.63-2.87-3.17-5.79-4.76-8.68
						c-0.8-1.45-1.5-2.93-2.26-4.4c-0.74-1.48-1.52-2.93-2.19-4.43c-0.68-1.5-1.44-2.97-2.06-4.49l-0.96-2.28
						C2095.17,2471.6,2094.84,2470.84,2094.62,2470.05z"></path>
      <path fill="#FFF" d="M2137.69 2484.39c-1.32 5.42-2.35 10.91-3.19 16.43-.83 5.52-1.43 11.08-1.7 16.67-.26 5.59-.19 11.22.51 16.83.38 2.8.93 5.6 1.75 8.35.83 2.74 1.94 5.45 3.56 7.95l2.24-1.44c-1.53-2.16-2.67-4.63-3.56-7.19-.89-2.57-1.52-5.24-2-7.94-.91-5.42-1.2-10.97-1.16-16.51.05-5.54.42-11.1 1.03-16.63C2135.78 2495.37 2136.59 2489.86 2137.69 2484.39zM2153.81 2569.67c-1.81-1.36-3.6-2.48-5.46-3.59-1.85-1.11-3.74-2.13-5.65-3.13-3.82-1.97-7.74-3.73-11.7-5.35-1.99-.79-3.98-1.58-6.01-2.29-2.01-.75-4.05-1.4-6.08-2.07-2.03-.68-4.1-1.24-6.14-1.86l-6.2-1.66 6.1 1.97c2.01.73 4.04 1.39 6.02 2.17 1.99.77 3.98 1.52 5.93 2.37 1.97.8 3.9 1.69 5.83 2.57 3.84 1.81 7.62 3.74 11.26 5.87 1.82 1.07 3.62 2.17 5.36 3.34 1.73 1.15 3.48 2.4 5 3.66L2153.81 2569.67zM2169.69 2592.92c-1.74-4.52-3.18-9.27-4.38-14.02-1.2-4.77-2.14-9.61-2.83-14.48-.38-2.43-.6-4.89-.84-7.34-.12-1.23-.15-2.46-.23-3.69l-.1-1.85c-.03-.62-.02-1.23-.03-1.85l-.04-3.7.16-3.7.08-1.85.19-1.84.37-3.69-.54 3.67-.27 1.84-.16 1.85-.32 3.7-.13 3.71c-.02.62-.05 1.24-.06 1.86l.02 1.86c.02 1.24.01 2.48.07 3.72.13 2.48.24 4.96.51 7.43.48 4.94 1.2 9.87 2.2 14.75 1.01 4.89 2.22 9.7 3.83 14.51L2169.69 2592.92zM2197.87 2572.91c-1.2 5.29-2.14 10.63-2.92 16-.77 5.37-1.34 10.77-1.63 16.2-.28 5.43-.28 10.89.26 16.35.29 2.73.73 5.45 1.4 8.15.68 2.69 1.59 5.37 2.97 7.89l2.34-1.28c-1.33-2.21-2.29-4.67-3.04-7.21-.74-2.54-1.27-5.15-1.67-7.79-.75-5.3-.98-10.69-.92-16.07.07-5.39.41-10.79.96-16.16C2196.17 2583.6 2196.9 2578.23 2197.87 2572.91zM2137.65 2593.97c3.93.37 7.81 1.09 11.64 2 3.82.92 7.57 2.09 11.2 3.5 3.63 1.42 7.1 3.19 10.38 5.21 3.26 2.05 6.18 4.52 8.79 7.23l1.95-1.8c-2.96-2.75-6.19-5.17-9.69-7.11-3.52-1.9-7.18-3.51-10.95-4.76-3.78-1.23-7.63-2.2-11.53-2.92C2145.54 2594.63 2141.6 2594.13 2137.65 2593.97zM2219.71 2612.68c-1.43 5.53-2.37 11.19-2.98 16.87-.57 5.69-.79 11.43-.43 17.17.35 5.73 1.27 11.47 3.03 17.01.91 2.76 2 5.48 3.37 8.09 1.4 2.59 3.04 5.06 4.94 7.37l2.04-1.7c-1.85-2.08-3.49-4.35-4.91-6.75-1.39-2.42-2.55-4.99-3.53-7.62-1.91-5.29-3.04-10.86-3.6-16.5-.58-5.64-.59-11.33-.24-17.01C2217.78 2623.93 2218.49 2618.26 2219.71 2612.68zM2209.29 2649.85c-2.55-1.91-5.16-3.42-7.92-4.79-2.75-1.35-5.62-2.45-8.55-3.31-1.46-.46-2.96-.76-4.45-1.1-.75-.14-1.51-.24-2.26-.36l-1.13-.17-1.14-.09c-3.03-.35-6.08-.17-9.08.1 3.02-.06 6.04-.02 9 .55l1.11.17 1.09.25c.73.17 1.46.32 2.18.51 1.43.44 2.86.83 4.25 1.38 2.78 1.04 5.47 2.3 8.02 3.79 2.53 1.48 5.01 3.19 7.12 5.03L2209.29 2649.85z"></path>
    </g>
    <path fill="#F99223" d="M2482.76,2820.91c0-66.85-0.6-126.57-40.78-165.96h-278.72c-40.18,39.39-40.78,99.11-40.78,165.96
				c0,118.61,80.66,214.78,180.14,214.78S2482.76,2939.52,2482.76,2820.91z"></path>
    <ellipse cx="2296.36" cy="2997.85" fill="#F99223" rx="178.89" ry="46.37"></ellipse>
    <path fill="#E07807" d="M2170.73,2968.57c0,0,110.09,80.54,264.85,0C2435.58,2968.57,2301.54,3071.07,2170.73,2968.57z"></path>
  </g>
</svg>
